<svg xmlns="http://www.w3.org/2000/svg" width="30%" viewBox="0 0 3300 2550"><path fill="none" d="M2370 2552H2V2h3299.999V2552zM1875 805.68h996.943c2.333 0 4.667.027 7-.007 7.893-.113 14.97-2.69 21.327-7.274 13.75-9.915 19.207-23.812 17.174-40.1-2.14-17.15-13.141-27.83-28.8-33.99-24.125-9.492-48.36-18.712-72.422-28.36-81.46-32.665-163.114-64.868-244.22-98.398-71.257-29.458-141.827-60.578-212.828-90.663-11.263-4.773-17.233-12.16-19.16-24.302-3.017-19.01-7.127-37.848-10.91-56.731-11.545-57.629-23.963-115.097-34.436-172.919-6.306-34.817-36.478-57.67-69.372-57.607-298.982.58-597.965.34-896.948.34-2.333 0-4.67-.09-6.999.018-15.934.736-29.504 6.8-41.283 17.572-8.555 7.823-13.863 17.778-19.76 27.42-49.996 81.745-100.13 163.407-149.889 245.296-5.518 9.082-12.458 15.196-22.226 18.836-16.818 6.267-33.415 13.133-50.28 19.265-70.284 25.554-140.465 51.407-211.002 76.244-80.585 28.374-161.445 55.972-242.308 83.549-50.354 17.172-100.959 33.607-151.402 50.519-21.752 7.292-31.75 30.549-21.722 50.733 7.009 14.11 18.577 20.652 34.605 20.648 475.64-.11 951.279-.09 1428.918-.09m-984 811.99c-15.331 0-30.671.333-45.991-.086-18.134-.496-20.168 4.511-26.031 18.936-.372.917-.472 1.94-.773 2.89-16.612 52.262-33.352 104.484-49.737 156.817-2.882 9.207-8.642 14.429-17.33 17.648-14.016 5.193-27.93 10.674-41.79 16.275-22.959 9.28-46.333 16.539-71.499 15.51-38.8-1.587-64.578-21.392-73.823-57.982-.814-3.222-1.227-6.59-2.445-9.644-.6-1.506-2.664-3.465-3.979-3.403-1.944.092-4.276 1.408-5.575 2.94-1.16 1.366-1.293 3.705-1.62 5.658-3.806 22.683-5.774 45.426-2.572 68.392 4.493 32.229 17.298 60.022 43.618 80.206 22.361 17.148 48.205 25.084 76.148 25.693 11.909.26 23.852-1.343 35.79-1.882 3.375-.152 6.786.466 11.391.824-.798 6.173-.891 11.153-2.158 15.814-2.787 10.254-6.122 20.361-9.311 30.504-27.914 88.77-55.844 177.535-83.772 266.302-2.992 9.51-6.213 18.953-8.946 28.536-3.289 11.53 1.671 18.202 13.482 18.705.998.043 2 .011 3 .008l212.938-.65c.667-.002 1.334-.02 2 0 7.883.238 13.294-3.846 16.957-10.304 1.949-3.435 3.279-7.277 4.502-11.06 9.925-30.679 19.85-61.359 29.6-92.094 15.775-49.738 31.347-99.541 47.172-149.264 3.116-9.79 6.396-19.612 10.663-28.932 5.025-10.976 14.453-16.131 26.504-16.336 12.105-.206 23.906 1.846 35.144 6.156 20.281 7.777 31.212 22.806 33.161 44.461 1.3 14.45-.621 28.605-4.871 42.28-14.497 46.656-29.388 93.19-44.18 139.753-5.936 18.69-12.254 37.262-17.93 56.03-4.095 13.54 2.145 20.869 14.56 20.157 14.617-.837 29.32-.196 43.985-.196 57.662 0 115.324-.126 172.985.117 10.349.043 17.125-4.254 21.371-13.253 1.13-2.395 2.016-4.922 2.825-7.448 4.458-13.926 8.902-27.857 13.269-41.812 15.878-50.747 31.703-101.51 47.586-152.255 12.707-40.597 25.52-81.16 38.194-121.767 17.723-56.786 35.34-113.606 53.042-170.399 17.9-57.426 35.725-114.876 53.848-172.231 5.654-17.895-1.876-19.865-14.92-19.794-70.66.38-141.321.177-211.982.182-17.013.002-21.29 3.204-26.396 19.686-.295.95-.578 1.905-.87 2.857-8.508 27.628-16.955 55.274-25.537 82.878a48736 48736 0 0 1-40.717 130.38c-5.376 17.124-10.972 34.178-16.542 51.24-3.16 9.684-9.828 15.982-19.784 17.68-6.757 1.151-14.02 2.032-20.637.79-20.114-3.775-36.235-14.53-48.157-31.214-6.61-9.25-9.7-19.784-8.374-31.095 1.077-9.198 2.347-18.53 5-27.36 15.008-49.962 30.407-99.806 45.789-149.655 5.194-16.832 10.862-33.517 16.057-50.348 3.094-10.024-1.01-15.502-11.346-15.83-1.998-.064-4-.01-6-.01zM593.457 942.496c-21.022 65.85-42.02 131.706-63.075 197.544-16.602 51.917-33.338 103.79-49.902 155.72-21.614 67.758-43.118 135.552-64.668 203.331-9.365 29.455-18.75 58.902-28.069 88.37-2.3 7.278-.265 14.01 5.908 17.07 3.073 1.524 7.034 1.725 10.593 1.73 71.32.092 142.64.094 213.958.05 16.64-.01 22.424-4.391 27.413-20.431 2.368-7.614 4.482-15.308 6.85-22.922 15.684-50.451 31.44-100.88 47.107-151.337 15.47-49.82 30.884-99.659 46.281-149.502 12.848-41.588 25.877-83.122 38.38-124.814 11.078-36.946 22.52-73.744 37.583-109.304 1.544-3.645 3.238-7.34 5.527-10.535 10.947-15.289 26.534-22.882 44.69-25.163 26.102-3.28 45.146 8.542 55.369 32.641 7.707 18.171 10.04 37.338 9.32 56.493-1.312 35.012-8.51 69.11-20.7 102.06-12.273 33.18-29.174 63.73-55.291 87.89-19.468 18.008-41.748 30.072-69.798 18.972-4.8-1.9-7.406-.385-8.973 4.866-1.224 4.102-1.642 8.45-2.354 12.698-7.461 44.523 19 79.713 56.385 92.938 17.1 6.05 34.861 8.143 52.78 9.158 36.536 2.071 71.5-4.333 104.51-20.398 37.343-18.174 68.88-43.845 96.41-74.728 51.344-57.6 75.784-125.66 77.727-202.09.436-17.15-1.206-34.557-3.875-51.534-4.92-31.3-17.953-59.287-40.694-81.693-41.473-40.863-92.196-62.238-149.755-67.024-26.801-2.228-53.805-2.663-80.72-2.762-88.315-.325-176.632-.122-264.948-.122-2 0-4-.05-5.998.011-11.76.354-18.57 5.191-22.519 16.145-1.804 5.004-3.384 10.089-5.452 16.672m1102.68 772.413c32.29 22.11 66.578 40.162 104.02 52.032 34.649 10.984 69.893 15.53 106.147 11.397 49.242-5.613 89.13-29.053 122.901-64.205 1.818-1.893 3.594-4.096 4.553-6.49 2.737-6.83-1.055-13.397-7.219-12.71-27.413 3.05-51.857-5.325-74.63-19.591-30.997-19.417-54.68-46.395-75.986-75.53-22.845-31.242-47.292-60.968-76.295-86.767-28.308-25.181-59.255-46.203-94.576-60.328-35.354-14.137-71.978-20.938-110.14-18.466-1.992.13-4.13.475-5.962-.073-1.996-.597-4.834-1.79-5.283-3.318-.608-2.073.07-5.155 1.355-6.992 1.652-2.363 4.421-3.964 6.767-5.82 90.472-71.609 180.927-143.24 271.477-214.75 6.727-5.313 11.676-11.522 14.943-19.464 12.015-29.2 24.266-58.304 36.48-87.423 6.434-15.341 4.174-18.782-12.75-18.734-66.308.19-132.617.498-198.926.617-58.991.107-117.983.022-176.974.026-2.665 0-5.387-.293-7.985.138-7.997 1.325-14.326 4.493-16.583 13.455-2.187 8.681-5.403 17.102-8.123 25.652-12.394 38.955-24.863 77.887-37.11 116.89-4.318 13.753-4.043 13.873 10.349 13.875 50.326.006 100.652-.027 150.978.06 3.932.006 8.007.32 11.76 1.39 5.09 1.453 6.393 4.588 3.818 9.065-2.13 3.705-4.862 7.178-7.832 10.268a3928 3928 0 0 1-40.474 41.474c-44.075 44.506-88.225 88.939-132.317 133.429-26.5 26.74-52.946 53.532-79.416 80.303-.936.947-1.874 1.893-2.788 2.862-3.178 3.371-3.582 6.868-.504 10.798 2.352.112 4.664.386 6.958.279a25.4 25.4 0 0 0 5.892-.985c25.795-7.543 51.984-6.992 78.045-2.622 53.237 8.928 95.988 35.321 128.886 78.265 11.7 15.272 24.551 29.76 37.808 43.721 20.431 21.517 43.3 40.343 68.737 58.272m1125.03-576.847c1.494-4.754 2.966-9.514 4.485-14.26 4.36-13.615 8.931-27.167 12.95-40.882.819-2.793.691-7.297-1.011-8.99-1.681-1.67-6.117-1.581-8.977-.84-5.436 1.407-10.603 3.847-15.893 5.829-26.765 10.03-53.513 20.108-80.31 30.049-13.08 4.85-24.952 3.807-36.21-5.769a171.1 171.1 0 0 0-48.632-29.096c-44.883-17.576-90.735-18.496-136.97-6.66-61.455 15.733-110.573 51.116-151.994 97.935-27.075 30.603-48.537 64.958-64.758 102.507-16.468 38.121-26.85 77.781-29.55 119.305-1.45 22.283-1.111 44.539 1.976 66.704 3.488 25.037 10.788 48.705 25.83 69.372 18.205 25.014 42.75 38.154 73.925 38.425 24.377.212 46.765-7.28 67.03-19.86 32.03-19.883 61.277-43.432 86.51-71.696 3.646-4.082 7.04-8.896 13.606-9.747 4.872 5.759 3.565 11.901 1.84 17.958-5.097 17.892-10.434 35.715-15.456 53.627-2.25 8.025.062 11.162 8.28 11.645 4.982.293 9.995.042 14.995.066 42.647.21 85.294.391 127.94.658 14.738.092 22.492-5.642 27.06-20.086 24.156-76.366 48.254-152.75 72.566-229.066 16.548-51.943 33.415-103.783 50.768-157.128m-1236.3 941.868c11.125-34.133 21.64-68.48 33.518-102.349 18.041-51.44 36.932-102.582 55.671-153.775 5.435-14.846 4.229-19.734-8.74-28.326-1.665-1.103-3.377-2.136-5.036-3.25-22.388-15.02-45.175-29.676-63.762-49.43-16.16-17.175-31.354-35.267-46.733-53.161-6.497-7.561-12.206-15.795-18.587-23.462-4.81-5.781-8.743-4.992-11.612 1.917-.763 1.839-1.323 3.763-1.943 5.659q-12.704 38.865-25.4 77.732c-28.387 86.91-56.431 173.933-85.292 260.685-15.963 47.982-30.747 96.214-40.167 145.96-7.137 37.69-.39 72.087 24.67 101.952 25.29 30.138 58.234 47.049 96.416 53.838 36.595 6.507 73.394 6.654 110.08.144 40.269-7.145 75.983-23.873 106.154-51.688 30.918-28.503 53.284-63.06 68.015-102.137 17.467-46.336 33.439-93.238 49.894-139.953 17.23-48.914 34.284-97.89 51.356-146.86 1.938-5.558 3.493-11.25 5.498-17.763-3.086 0-5.001.057-6.912-.01-19.597-.68-39.315-.268-58.756-2.391-19.067-2.082-37.865-6.68-56.755-10.308-9.84-1.89-14.44.426-17.822 9.55-.808 2.18-1.544 4.404-2.088 6.661-13.545 56.199-26.888 112.447-40.636 168.595a9318 9318 0 0 1-32.19 127.58c-4.122 15.864-10.918 30.612-21.735 43.336-12.822 15.083-28.486 19.243-48.584 13.198-13.182-3.965-26.676-22.83-26.842-39.018-.12-11.88.406-24.048 2.877-35.61 4.018-18.802 9.863-37.214 15.442-57.316m359.79-732.234c-2.022 1.72-4.162 3.32-6.045 5.179-28.21 27.849-56.367 55.752-84.591 83.587-4.495 4.433-9.33 8.518-13.864 12.913-2.854 2.767-5.939 5.494-8.036 8.8-3.794 5.978-.484 11.387 6.613 11.375 1.28-.002 2.54-.716 3.838-.902 17.818-2.551 35.607-3.198 53.594-1.085 48.015 5.642 86.915 27.021 116.604 65.362 32.16 41.532 68.735 78.693 112.25 108.388 56.975 38.882 118.485 64.188 189.21 61.112 32.19-1.4 62.475-8.992 89.911-25.998 10.107-6.265 19.187-14.236 28.422-21.81 1.696-1.391 3.088-4.988 2.496-6.914-.952-3.095-4.1-2.955-7.483-2.612-8.237.835-16.607 1.3-24.863.838-32.957-1.845-61.68-14.837-87.906-34.202-29.6-21.856-52.65-49.687-72.798-80.065-18.09-27.276-37.931-52.981-62.544-74.787-30.342-26.88-64.44-46.826-103.898-57.075-18.068-4.693-36.42-7.26-55.09-7.475-3.357-.039-7.067.337-8.395-3.66-1.301-3.915.372-7.126 3.61-9.576 2.122-1.605 4.173-3.304 6.262-4.953 33.407-26.361 66.83-52.705 100.221-79.087 45.915-36.276 91.723-72.69 137.794-108.768 7.605-5.956 13.024-12.827 16.624-21.768 9.556-23.737 19.65-47.256 29.44-70.899 4.746-11.462 1.673-15.824-10.985-15.947-1.666-.016-3.333-.007-4.999-.001-61.301.216-122.601.486-183.903.631-41.32.098-82.642.011-123.964.024-13.578.004-16.78 2.023-21.69 14.56a31630 31630 0 0 0-46.297 118.93c-1.117 2.885-1.377 6.1-2.329 10.522h12.16c40.321 0 80.643-.02 120.964.02 6.555.007 13.087.368 19.055 4.406-.508 1.574-.539 3.166-1.35 3.972a50528 50528 0 0 1-118.039 116.965m226.802 626.856c.486-1.59.898-3.209 1.471-4.767 5.086-13.837 11.193-17.906 26.163-18.14 19.606-.304 39.209-.894 58.814-1.303 18.784-.392 16.322 3.586 23.153-16.96 7.865-23.655 15.553-47.368 23.275-71.07 3.843-11.792 2.218-13.923-10.486-13.991-4.665-.026-9.33-.004-13.994-.004-17.993 0-35.987.108-53.978-.047-9.213-.08-13.212-4.942-12.074-14.058.164-1.31.521-2.606.889-3.88 5.252-18.188 10.549-36.363 15.761-54.563.878-3.063 1.409-6.225 2.222-9.893-3.19-.745-5.352-1.334-7.547-1.748-9.13-1.72-18.326-3.13-27.396-5.121-25.345-5.567-48.334-16.532-69.825-30.895-3.408-2.277-6.582-6.151-10.498-4.117-7.047 10.607-13.606 20.205-19.889 29.982-35.37 55.041-85.503 87.073-150.206 96.158-7.893 1.108-12.595 4.327-15.063 12.036-7.498 23.425-15.46 46.702-23.147 70.068-1.838 5.587-3.31 11.294-5.284 18.093 11.092 0 21.038-.094 30.98.05 3.614.052 7.293.334 10.814 1.1 10.148 2.207 13.87 8.173 11.27 18.178-2.588 9.96-5.558 19.82-8.3 29.741-11.946 43.211-24.332 86.307-35.635 129.686-7.22 27.71-11.541 55.937-7.268 84.779 7.186 48.508 33.875 87.965 86.873 101.567 35.73 9.17 71.035 9.204 105.757-3.851 45.944-17.275 78.361-49.065 98.425-93.659.868-1.93.98-4.2 1.721-7.57-7.623.808-14.095 1.439-20.554 2.186-24.32 2.812-39.462-8.743-46.938-24.04-5.869-12.009-7.177-24.77-6.974-37.796.307-19.778 5.102-38.881 10.618-57.619 11.536-39.191 24.084-78.085 36.85-118.532m-788.443-896.24c-42.293-.215-84.586-.455-126.88-.633-14.77-.062-19.459 3.235-24.214 17.12-3.228 9.424-6.232 18.928-9.26 28.42-15.251 47.79-30.516 95.574-45.7 143.384-19.81 62.373-39.555 124.766-59.316 187.154-8.124 25.649-16.28 51.288-24.245 76.986-1.11 3.583-1.201 7.482-1.948 12.46 5.314.195 9.201.458 13.088.46 58.297.026 116.595.018 174.892.018 6.33 0 12.659-.042 18.988.006 6.37.05 10.764-2.92 13.302-8.654 1.073-2.423 1.972-4.935 2.792-7.458 13.758-42.339 27.574-84.66 41.212-127.038 23.815-74.002 47.51-148.042 71.268-222.062 9.747-30.367 19.566-60.711 29.262-91.095 2.253-7.06.798-9.587-6.322-9.607-21.638-.059-43.278.31-66.92.54m44.637-63.535c13.68-8.013 25.11-18.503 34.393-31.333 14.614-20.2 19.925-42.742 14.812-67.038-5.484-26.065-22.654-43.016-46.105-54.027-15.651-7.35-32.312-9.311-49.528-8.801-40.155 1.188-72.876 17.269-96.37 49.687-22.9 31.598-22.872 70.39 2.528 99.218 16.362 18.57 38.096 27.544 62.38 29.683 27.122 2.389 52.936-2.614 77.89-17.39m908.026 1323.315c-.86-3.205-1.582-6.456-2.605-9.608-5.573-17.165-16.896-29.348-33.395-36.15-42.09-17.35-82.738 15.969-82.614 55.175.106 33.547 33.35 70.063 78.564 56.216 22.766-6.972 44.004-32.155 40.05-65.633"/><path fill="#EC1C24" d="M1874 805.68c-476.64 0-952.279-.021-1427.918.089-16.028.004-27.596-6.539-34.605-20.648-10.027-20.184-.03-43.44 21.722-50.733 50.443-16.912 101.048-33.347 151.402-50.52 80.863-27.576 161.723-55.174 242.308-83.548 70.537-24.837 140.718-50.69 211.002-76.244 16.865-6.132 33.462-12.998 50.28-19.265 9.768-3.64 16.708-9.754 22.226-18.836 49.76-81.89 99.893-163.551 149.889-245.297 5.897-9.641 11.205-19.596 19.76-27.42 11.78-10.77 25.349-16.835 41.283-17.57 2.329-.108 4.666-.018 7-.018 298.982 0 597.965.24 896.947-.34 32.894-.065 63.066 22.79 69.372 57.606 10.473 57.822 22.891 115.29 34.436 172.919 3.783 18.883 7.893 37.722 10.91 56.73 1.927 12.142 7.897 19.53 19.16 24.303 71.001 30.085 141.571 61.205 212.829 90.663 81.105 33.53 162.758 65.733 244.22 98.398 24.062 9.648 48.296 18.868 72.421 28.36 15.659 6.16 26.66 16.84 28.8 33.99 2.033 16.288-3.425 30.185-17.174 40.1-6.357 4.584-13.434 7.161-21.328 7.274-2.332.034-4.666.006-7 .006z"/><path fill="#EC1D25" d="M892 1617.669h163.987c2 0 4.001-.053 5.999.01 10.336.33 14.44 5.807 11.346 15.83-5.195 16.832-10.863 33.517-16.057 50.35-15.382 49.848-30.781 99.692-45.79 149.653-2.652 8.832-3.922 18.163-5 27.361-1.324 11.311 1.766 21.845 8.375 31.095 11.922 16.685 28.043 27.439 48.157 31.214 6.616 1.242 13.88.361 20.637-.79 9.956-1.698 16.623-7.996 19.784-17.68 5.57-17.062 11.166-34.116 16.542-51.24 13.639-43.439 27.2-86.903 40.717-130.38 8.582-27.604 17.03-55.25 25.536-82.878.293-.952.576-1.906.87-2.857 5.107-16.482 9.384-19.684 26.397-19.686 70.66-.005 141.323.198 211.981-.182 13.045-.07 20.575 1.9 14.92 19.794-18.122 57.355-35.948 114.805-53.847 172.231-17.703 56.793-35.319 113.613-53.042 170.399-12.674 40.607-25.487 81.17-38.194 121.767-15.883 50.745-31.708 101.508-47.586 152.255-4.367 13.955-8.81 27.886-13.269 41.812-.809 2.526-1.695 5.053-2.825 7.448-4.246 8.999-11.022 13.296-21.37 13.253-57.662-.243-115.324-.117-172.986-.117-14.665 0-29.368-.641-43.985.196-12.415.712-18.655-6.618-14.56-20.157 5.676-18.768 11.994-37.34 17.93-56.03 14.792-46.564 29.683-93.097 44.18-139.752 4.25-13.676 6.172-27.831 4.871-42.28-1.949-21.656-12.88-36.685-33.16-44.462-11.239-4.31-23.04-6.362-35.145-6.156-12.051.205-21.479 5.36-26.504 16.336-4.267 9.32-7.547 19.142-10.663 28.932-15.825 49.723-31.397 99.526-47.173 149.264-9.749 30.735-19.674 61.415-29.599 92.095-1.223 3.782-2.553 7.624-4.502 11.059-3.663 6.458-9.074 10.542-16.957 10.305-.666-.02-1.333-.003-2-.001l-212.938.65c-1 .003-2.002.035-3-.008-11.81-.503-16.771-7.174-13.482-18.705 2.733-9.583 5.954-19.027 8.946-28.536 27.928-88.767 55.858-177.531 83.772-266.302 3.189-10.143 6.524-20.25 9.311-30.504 1.267-4.661 1.36-9.641 2.158-15.814-4.605-.358-8.016-.976-11.391-.824-11.938.54-23.881 2.142-35.79 1.882-27.943-.609-53.787-8.545-76.148-25.693-26.32-20.184-39.125-47.977-43.618-80.206-3.202-22.966-1.234-45.709 2.571-68.392.328-1.953.462-4.292 1.62-5.658 1.3-1.532 3.632-2.848 5.576-2.94 1.315-.062 3.378 1.897 3.979 3.403 1.218 3.053 1.631 6.422 2.445 9.644 9.245 36.59 35.023 56.395 73.823 57.982 25.166 1.029 48.54-6.23 71.499-15.51 13.86-5.601 27.774-11.082 41.79-16.275 8.688-3.22 14.448-8.44 17.33-17.648 16.385-52.333 33.125-104.555 49.737-156.818.301-.95.4-1.972.773-2.889 5.863-14.425 7.897-19.432 26.031-18.936 15.32.419 30.66.086 46.991.086M593.65 941.73c1.875-5.816 3.455-10.901 5.26-15.905 3.949-10.954 10.759-15.791 22.518-16.145 1.998-.06 3.999-.01 5.998-.01 88.316-.001 176.633-.204 264.948.12 26.915.1 53.919.535 80.72 2.763 57.559 4.786 108.282 26.161 149.755 67.024 22.741 22.406 35.773 50.393 40.694 81.693 2.67 16.977 4.311 34.385 3.875 51.533-1.943 76.431-26.383 144.49-77.728 202.09-27.529 30.884-59.066 56.555-96.409 74.729-33.01 16.065-67.974 22.47-104.51 20.398-17.919-1.015-35.68-3.108-52.78-9.158-37.384-13.225-63.846-48.415-56.385-92.938.712-4.249 1.13-8.596 2.354-12.698 1.567-5.25 4.173-6.765 8.973-4.866 28.05 11.1 50.33-.964 69.798-18.973 26.117-24.159 43.018-54.71 55.292-87.889 12.189-32.95 19.387-67.048 20.7-102.06.718-19.155-1.614-38.322-9.321-56.493-10.223-24.1-29.267-35.92-55.369-32.641-18.156 2.281-33.743 9.874-44.69 25.163-2.289 3.196-3.983 6.89-5.527 10.535-15.064 35.56-26.505 72.358-37.584 109.304-12.502 41.692-25.53 83.226-38.379 124.814a108575 108575 0 0 1-46.281 149.502c-15.668 50.457-31.423 100.886-47.108 151.337-2.367 7.614-4.48 15.308-6.849 22.922-4.989 16.04-10.772 20.42-27.413 20.431-71.319.044-142.638.042-213.958-.05-3.56-.005-7.52-.206-10.593-1.73-6.173-3.06-8.209-9.792-5.908-17.07 9.318-29.468 18.704-58.915 28.07-88.37 21.549-67.779 43.053-135.573 64.667-203.332 16.564-51.928 33.3-103.802 49.902-155.719A173102 173102 0 0 0 593.65 941.73M1695.537 1714.514c-24.836-17.533-47.705-36.36-68.136-57.876-13.257-13.961-26.108-28.449-37.808-43.721-32.898-42.944-75.65-69.337-128.886-78.265-26.061-4.37-52.25-4.92-78.045 2.622a25.4 25.4 0 0 1-5.892.985c-2.294.107-4.606-.167-6.957-.279-3.079-3.93-2.675-7.427.503-10.798.914-.969 1.852-1.915 2.788-2.862 26.47-26.77 52.916-53.564 79.416-80.303 44.092-44.49 88.242-88.923 132.317-133.429a3928 3928 0 0 0 40.474-41.474c2.97-3.09 5.701-6.563 7.832-10.268 2.575-4.477 1.273-7.612-3.818-9.065-3.753-1.07-7.828-1.384-11.76-1.39-50.326-.087-100.652-.054-150.978-.06-14.392-.002-14.667-.122-10.348-13.875 12.246-39.003 24.715-77.935 37.11-116.89 2.72-8.55 5.935-16.97 8.122-25.652 2.257-8.962 8.586-12.13 16.583-13.455 2.598-.43 5.32-.138 7.985-.138 58.991-.004 117.983.081 176.974-.026 66.309-.12 132.618-.428 198.927-.617 16.923-.048 19.183 3.393 12.749 18.734-12.214 29.119-24.465 58.222-36.48 87.423-3.267 7.942-8.216 14.15-14.943 19.464-90.55 71.51-181.005 143.141-271.477 214.75-2.346 1.856-5.115 3.457-6.767 5.82-1.286 1.837-1.963 4.92-1.355 6.992.449 1.527 3.287 2.721 5.283 3.318 1.833.548 3.97.202 5.962.073 38.162-2.472 74.786 4.329 110.14 18.466 35.321 14.125 66.268 35.147 94.576 60.328 29.003 25.799 53.45 55.525 76.295 86.767 21.305 29.135 44.99 56.113 75.985 75.53 22.774 14.266 47.218 22.642 74.631 19.59 6.164-.686 9.956 5.88 7.22 12.711-.96 2.394-2.736 4.597-4.554 6.49-33.77 35.152-73.659 58.592-122.9 64.205-36.255 4.134-71.5-.413-106.148-11.397-37.442-11.87-71.73-29.922-104.62-52.428M2820.854 1138.792c-17.039 52.616-33.906 104.456-50.454 156.399-24.312 76.316-48.41 152.7-72.565 229.066-4.569 14.444-12.323 20.178-27.06 20.086-42.647-.267-85.294-.449-127.941-.658-5-.024-10.013.227-14.995-.066-8.218-.483-10.53-3.62-8.28-11.645 5.022-17.912 10.359-35.735 15.456-53.627 1.725-6.057 3.032-12.2-1.84-17.958-6.565.851-9.96 5.665-13.605 9.747-25.234 28.264-54.48 51.813-86.511 71.697-20.265 12.58-42.653 20.07-67.03 19.859-31.175-.271-55.72-13.411-73.925-38.425-15.042-20.667-22.342-44.335-25.83-69.372-3.087-22.165-3.425-44.421-1.976-66.704 2.7-41.524 13.082-81.184 29.55-119.305 16.22-37.549 37.683-71.904 64.758-102.507 41.42-46.819 90.539-82.202 151.994-97.935 46.235-11.836 92.087-10.916 136.97 6.66a171.1 171.1 0 0 1 48.633 29.096c11.257 9.576 23.13 10.62 36.208 5.769 26.798-9.941 53.546-20.02 80.311-30.049 5.29-1.982 10.457-4.422 15.893-5.83 2.86-.74 7.296-.83 8.977.842 1.702 1.692 1.83 6.196 1.012 8.99-4.02 13.714-8.591 27.266-12.95 40.881-1.52 4.746-2.992 9.506-4.8 14.99m-348.46 217.11c-.243 9.317-.552 18.633-.711 27.951-.18 10.544 3.045 20.24 7.308 29.752 6.345 14.156 18.43 15.108 29.447 7.465 8.163-5.663 13.82-13.424 18.661-21.818 22.362-38.766 39.814-79.656 52.483-122.573 11.504-38.97 18.262-78.857 21.878-119.247.905-10.12.688-20.728-1.336-30.638-3.644-17.841-18.916-23.503-34.183-13.508-10.748 7.037-19.27 16.458-25.543 27.608-19.627 34.893-35.23 71.523-46.689 109.912-10.092 33.807-16.854 68.274-21.315 105.096M1584.615 2080.694c-5.327 19.34-11.172 37.751-15.19 56.553-2.471 11.562-2.998 23.73-2.877 35.61.166 16.187 13.66 35.053 26.842 39.018 20.098 6.045 35.762 1.885 48.584-13.198 10.817-12.724 17.613-27.472 21.736-43.336a9318 9318 0 0 0 32.19-127.58c13.747-56.148 27.09-112.396 40.635-168.595.544-2.257 1.28-4.48 2.088-6.66 3.382-9.125 7.981-11.44 17.822-9.55 18.89 3.628 37.688 8.225 56.755 10.307 19.44 2.123 39.159 1.711 58.756 2.392 1.91.066 3.826.009 6.912.009-2.005 6.514-3.56 12.205-5.498 17.762-17.072 48.97-34.126 97.947-51.356 146.861-16.455 46.715-32.427 93.617-49.894 139.953-14.731 39.077-37.097 73.634-68.015 102.137-30.171 27.815-65.885 44.543-106.154 51.688-36.686 6.51-73.485 6.363-110.08-.144-38.182-6.79-71.126-23.7-96.415-53.838-25.061-29.865-31.808-64.263-24.67-101.953 9.42-49.745 24.203-97.977 40.166-145.96 28.86-86.751 56.905-173.775 85.292-260.684q12.696-38.868 25.4-77.732c.62-1.896 1.18-3.82 1.943-5.659 2.87-6.909 6.802-7.698 11.612-1.917 6.38 7.667 12.09 15.901 18.587 23.462 15.379 17.894 30.574 35.986 46.733 53.16 18.587 19.755 41.374 34.41 63.762 49.432 1.659 1.113 3.37 2.146 5.036 3.249 12.969 8.592 14.175 13.48 8.74 28.326-18.739 51.193-37.63 102.335-55.67 153.775-11.879 33.869-22.394 68.216-33.772 103.112"/><path fill="#EC1D25" d="M1945.191 1347.236c39.542-39.125 78.557-77.78 117.504-116.504.811-.806.842-2.398 1.35-3.972-5.968-4.038-12.5-4.4-19.055-4.406-40.321-.04-80.643-.02-120.965-.02h-12.159c.952-4.422 1.212-7.637 2.329-10.521a31630 31630 0 0 1 46.297-118.93c4.91-12.538 8.112-14.557 21.69-14.561 41.322-.013 82.643.074 123.964-.024 61.302-.145 122.602-.415 183.903-.631 1.666-.006 3.333-.015 4.999.001 12.658.123 15.731 4.485 10.985 15.947-9.79 23.643-19.884 47.162-29.44 70.899-3.6 8.941-9.019 15.812-16.624 21.768-46.071 36.078-91.879 72.492-137.794 108.768-33.392 26.382-66.814 52.726-100.221 79.087-2.09 1.649-4.14 3.348-6.262 4.953-3.238 2.45-4.911 5.661-3.61 9.577 1.328 3.996 5.038 3.62 8.394 3.66 18.67.215 37.023 2.78 55.091 7.474 39.458 10.249 73.556 30.195 103.898 57.075 24.613 21.806 44.454 47.511 62.544 74.787 20.149 30.378 43.199 58.21 72.798 80.065 26.227 19.365 54.949 32.357 87.906 34.202 8.256.462 16.626-.003 24.863-.838 3.382-.343 6.53-.483 7.483 2.612.592 1.926-.8 5.523-2.496 6.914-9.235 7.574-18.315 15.545-28.422 21.81-27.436 17.006-57.72 24.597-89.91 25.998-70.726 3.076-132.236-22.23-189.212-61.112-43.514-29.695-80.09-66.856-112.25-108.388-29.688-38.34-68.588-59.72-116.603-65.362-17.987-2.113-35.776-1.466-53.594 1.085-1.298.186-2.559.9-3.838.902-7.097.012-10.407-5.397-6.613-11.375 2.097-3.306 5.182-6.033 8.036-8.8 4.533-4.395 9.369-8.48 13.864-12.913 28.224-27.835 56.38-55.738 84.59-83.587 1.884-1.86 4.024-3.459 6.58-5.64M2171.142 1975.269c-12.45 39.731-24.998 78.625-36.534 117.816-5.516 18.738-10.311 37.841-10.618 57.619-.203 13.027 1.105 25.787 6.974 37.796 7.476 15.297 22.618 26.852 46.938 24.04 6.459-.747 12.93-1.378 20.554-2.185-.74 3.37-.853 5.64-1.721 7.57-20.064 44.593-52.48 76.383-98.425 93.658-34.722 13.055-70.027 13.021-105.757 3.85-52.998-13.601-79.687-53.058-86.873-101.566-4.273-28.842.047-57.07 7.268-84.78 11.303-43.378 23.689-86.474 35.635-129.685 2.742-9.92 5.712-19.781 8.3-29.741 2.6-10.005-1.122-15.971-11.27-18.178-3.521-.766-7.2-1.048-10.814-1.1-9.942-.144-19.888-.05-30.98-.05 1.974-6.799 3.446-12.506 5.284-18.093 7.687-23.366 15.649-46.643 23.147-70.068 2.468-7.709 7.17-10.928 15.063-12.036 64.703-9.085 114.837-41.117 150.206-96.158 6.283-9.777 12.842-19.375 19.89-29.982 3.915-2.034 7.09 1.84 10.497 4.117 21.491 14.363 44.48 25.328 69.825 30.895 9.07 1.991 18.266 3.402 27.396 5.121 2.195.414 4.357 1.003 7.547 1.748-.813 3.668-1.344 6.83-2.222 9.893-5.212 18.2-10.509 36.375-15.761 54.563-.368 1.274-.725 2.57-.89 3.88-1.137 9.116 2.862 13.979 12.075 14.058 17.991.155 35.985.046 53.978.047 4.664 0 9.329-.022 13.994.004 12.704.068 14.329 2.199 10.486 13.992-7.722 23.701-15.41 47.414-23.275 71.068-6.831 20.547-4.37 16.569-23.153 16.96-19.605.41-39.208 1-58.814 1.305-14.97.233-21.077 4.302-26.163 18.139-.573 1.558-.985 3.176-1.787 5.483M1384.016 1078.3c22.64-.216 44.28-.585 65.918-.526 7.12.02 8.575 2.547 6.322 9.607-9.696 30.384-19.515 60.728-29.262 91.095-23.758 74.02-47.453 148.06-71.268 222.062-13.638 42.378-27.454 84.7-41.212 127.038-.82 2.523-1.72 5.035-2.792 7.458-2.538 5.733-6.932 8.703-13.302 8.654-6.33-.048-12.659-.006-18.988-.006-58.297 0-116.595.008-174.892-.018-3.887-.002-7.774-.265-13.088-.46.747-4.978.838-8.877 1.948-12.46 7.965-25.698 16.121-51.337 24.245-76.986 19.76-62.388 39.506-124.781 59.315-187.154 15.185-47.81 30.45-95.595 45.7-143.384 3.03-9.492 6.033-18.996 9.261-28.42 4.755-13.885 9.443-17.182 24.215-17.12 42.293.178 84.586.418 127.88.62M1427.04 1015.188c-24.343 14.366-50.157 19.369-77.279 16.98-24.284-2.14-46.018-11.114-62.38-29.683-25.4-28.828-25.429-67.62-2.529-99.218 23.495-32.418 56.216-48.499 96.371-49.687 17.216-.51 33.877 1.452 49.528 8.8 23.451 11.012 40.62 27.963 46.105 54.028 5.113 24.296-.198 46.837-14.812 67.038-9.282 12.83-20.713 23.32-35.003 31.742"/><path fill="#ED252C" d="M2335.703 2338.98c3.928 32.591-17.31 57.774-40.076 64.746-45.214 13.847-78.458-22.669-78.564-56.216-.124-39.206 40.524-72.525 82.614-55.174 16.499 6.801 27.822 18.984 33.395 36.15 1.023 3.151 1.744 6.402 2.63 10.494m-50.649-37.312c-3.605-.437-7.28-1.563-10.806-1.205-34.85 3.535-51.007 37.117-40.96 62.693 6.697 17.045 19.058 27.515 36.63 30.141 18.097 2.704 33.493-4 44.128-19.36 18.334-26.482 5.45-64.067-28.992-72.269"/><path fill="none" d="M2472.592 1355.002c4.263-35.921 11.025-70.388 21.117-104.195 11.46-38.389 27.062-75.019 46.69-109.912 6.271-11.15 14.794-20.571 25.542-27.608 15.267-9.995 30.54-4.333 34.183 13.508 2.024 9.91 2.241 20.518 1.336 30.638-3.616 40.39-10.374 80.277-21.878 119.247-12.669 42.917-30.12 83.807-52.483 122.573-4.841 8.394-10.498 16.155-18.66 21.818-11.018 7.643-23.103 6.691-29.448-7.465-4.263-9.511-7.488-19.208-7.308-29.752.159-9.318.468-18.634.909-28.852"/><path fill="#FEF8F8" d="M2285.867 2301.759c33.629 8.11 46.512 45.696 28.178 72.178-10.635 15.36-26.03 22.064-44.128 19.36-17.572-2.626-29.933-13.096-36.63-30.141-10.047-25.576 6.11-59.158 40.96-62.693 3.525-.358 7.2.768 11.62 1.296m-31.56 23.708c.51 16.77-1.502 33.672 2.122 50.37h11.875v-25.759c6.052 5.907 10.45 12.35 14.82 18.812 5.987 8.851 7.508 9.33 18.885 5.526l-12.762-18.093c2.852-1.628 5.22-2.71 7.285-4.207 7.476-5.42 8.492-13.285 6.918-21.432-1.44-7.46-6.522-12.623-14.064-13.657-11.423-1.566-22.947-.913-34.683-.317-.17 2.974-.283 4.927-.396 8.757"/><path fill="#ED272F" d="M2254.307 2324.528c.113-2.891.225-4.844.396-7.818 11.736-.596 23.26-1.25 34.683.317 7.542 1.034 12.623 6.196 14.064 13.657 1.574 8.147.558 16.012-6.918 21.432-2.065 1.498-4.433 2.58-7.285 4.207l12.762 18.093c-11.377 3.803-12.898 3.325-18.885-5.526-4.37-6.462-8.768-12.905-14.82-18.812v25.76h-11.875c-3.624-16.7-1.612-33.601-2.122-51.31m34.874 7.618c-6.33-4.96-13.44-4.02-20.756-3.324v17.443c5.053-.649 9.355-.902 13.517-1.8 7.644-1.65 7.73-1.975 7.239-12.319"/><path fill="#FEF3F4" d="M2289.542 2332.898c.13 9.592.044 9.917-7.6 11.566-4.162.899-8.464 1.152-13.517 1.8v-17.442c7.316-.696 14.425-1.637 21.117 4.076"/></svg>